# xmcd CD database file
#
# Track frame offsets:
#	3000
#	20606
#	33320
#	47959
#	65980
#	75736
#	88514
#	103995
#	118318
#	133768
#	145407
#	158799
#	174271
#	189562
#	207662
#	226662
#	246019
#	271784
#	282913
#	299073
#	311181
#
# Disc length: 4273 seconds
#
# Revision: 0
# Processed by: cddbd v1.5.2PL0 Copyright (c) Steve Scherf et al.
# Submitted via: CDex 2.09
#
DISCID=48108915
DTITLE=Various Artist - Boys From The Bush - Men Of Aussie Country Volume 2
DYEAR=2010
DGENRE=Country
TTITLE0=McAlister Kemp - Blue Collar Night
TTITLE1=Adam Brand - I did what?
TTITLE2=Troy Cassar Daly - Chasing Rodeo
TTITLE3=Steve Forde - Half The Battle
TTITLE4=Lee Kernaghan - Sassafras Gap
TTITLE5=Adam Harvey - The House That Jack Built
TTITLE6=Travis Collins - Rip It Up
TTITLE7=Peter McWhirter - Humm
TTITLE8=Markus Meier - In My Boots
TTITLE9=James Blundell - Good Wood
TTITLE10=Adam James - Who's Counting Anyway
TTITLE11=Warren H Williams - Great Southern Land
TTITLE12=Lawrie Minson - Too Far Gone
TTITLE13=Mike Carr - She's Gone
TTITLE14=Stephen Rowe - Devil's Town
TTITLE15=The Bobkatz - The Man In The Picture
TTITLE16=Luke O'Shea - Bushranger
TTITLE17=The Davidson Brothers - Harden Up 
TTITLE18=Jake Nickolai - Three Days Drivin'
TTITLE19=8 Ball Aitken - Outback Booty Call
TTITLE20=Greg Storer - Lazy River
EXTD=YEAR: 2010
EXTT0=
EXTT1=
EXTT2=
EXTT3=
EXTT4=
EXTT5=
EXTT6=
EXTT7=
EXTT8=
EXTT9=
EXTT10=
EXTT11=
EXTT12=
EXTT13=
EXTT14=
EXTT15=
EXTT16=
EXTT17=
EXTT18=
EXTT19=
EXTT20=
PLAYORDER=
